<svg xmlns="http://www.w3.org/2000/svg" viewBox="0 0 32 32" fill="none">
  <defs>
    <linearGradient id="shieldGrad" x1="0" y1="0" x2="32" y2="32">
      <stop offset="0%" stop-color="#3b82f6"/>
      <stop offset="100%" stop-color="#1d4ed8"/>
    </linearGradient>
    <linearGradient id="pulseGrad" x1="16" y1="4" x2="16" y2="28">
      <stop offset="0%" stop-color="#60a5fa"/>
      <stop offset="100%" stop-color="#2563eb"/>
    </linearGradient>
  </defs>
  <!-- Shield body -->
  <path d="M16 2L4 7v9c0 7.5 5.1 14.5 12 16 6.9-1.5 12-8.5 12-16V7L16 2z" fill="url(#shieldGrad)" opacity="0.9"/>
  <!-- Inner pulse line (heartbeat/activity) -->
  <polyline points="9,17 12,17 14,12 16,22 18,14 20,17 23,17" stroke="white" stroke-width="2" stroke-linecap="round" stroke-linejoin="round" fill="none"/>
  <!-- Shield highlight -->
  <path d="M16 2L4 7v9c0 7.5 5.1 14.5 12 16 6.9-1.5 12-8.5 12-16V7L16 2z" fill="none" stroke="white" stroke-width="0.5" opacity="0.3"/>
</svg>
